<svg width="105" height="52" viewBox="0 0 85 32" fill="none" xmlns="http://www.w3.org/2000/svg">
<g clip-path="url(#clip0)">
<path d="M16.0366 12.8698L23.4232 8.59337L15.8422 16.1744L16.0366 12.8698Z" fill="#DDEEFF"/>
<path d="M19.1479 15.9812L23.4244 8.59456L15.8434 16.1756L19.1479 15.9812Z" fill="#99AACC"/>
<path d="M15.8195 12.8699L8.43283 8.59339L16.0139 16.1744L15.8195 12.8699Z" fill="#99AACC"/>
<path d="M12.7081 15.9812L8.43166 8.59458L16.0127 16.1756L12.7081 15.9812Z" fill="#DDEEFF"/>
<path d="M15.7558 19.3125L8.36913 23.589L15.9501 16.0079L15.7558 19.3125Z" fill="#DDEEFF"/>
<path d="M12.6445 16.2011L8.36801 23.5877L15.949 16.0067L12.6445 16.2011Z" fill="#99AACC"/>
<path d="M19.3164 16.1983L23.5929 23.5849L16.0119 16.0039L19.3164 16.1983Z" fill="#DDEEFF"/>
<path d="M16.205 19.3097L23.5917 23.5861L16.0107 16.0051L16.205 19.3097Z" fill="#99AACC"/>
<path d="M12.3077 19.2825L0 16.0005H16L12.3077 19.2825Z" fill="#99AACC"/>
<path d="M12.3077 12.7158L0 15.9978H16L12.3077 12.7158Z" fill="#DDEEFF"/>
<path d="M19.2842 19.6923L16.0022 32V16L19.2842 19.6923Z" fill="#99AACC"/>
<path d="M12.6537 19.6951L15.9357 32.0028L15.9357 16.0028L12.6537 19.6951Z" fill="#DDEEFF"/>
<path d="M19.6923 12.7158L32 15.9978H16L19.6923 12.7158Z" fill="#99AACC"/>
<path d="M19.6923 19.2825L32 16.0005H16L19.6923 19.2825Z" fill="#DDEEFF"/>
<path d="M12.7175 12.3077L15.9995 -6.85453e-07V16L12.7175 12.3077Z" fill="#99AACC"/>
<path d="M19.2842 12.3077L16.0022 -6.85453e-07V16L19.2842 12.3077Z" fill="#DDEEFF"/>
</g>
<g filter="url(#filter0_d)">
<path d="M42.0685 26.42C40.7619 26.42 39.5205 26.2333 38.3445 25.86C37.1685 25.4867 36.1605 24.9827 35.3205 24.348V21.604H38.3165V23.424C38.7832 23.704 39.3525 23.928 40.0245 24.096C40.7152 24.264 41.4152 24.348 42.1245 24.348C43.2445 24.348 44.0939 24.1147 44.6725 23.648C45.2512 23.1627 45.5405 22.4813 45.5405 21.604C45.5405 20.988 45.3819 20.4747 45.0645 20.064C44.7659 19.6533 44.3365 19.2987 43.7765 19C43.2165 18.7013 42.4419 18.356 41.4525 17.964C40.0712 17.4227 38.9605 16.9093 38.1205 16.424C37.2805 15.9387 36.6272 15.3693 36.1605 14.716C35.7125 14.044 35.4885 13.232 35.4885 12.28C35.4885 10.6933 36.0952 9.49867 37.3085 8.696C38.5219 7.87467 40.0805 7.464 41.9845 7.464C43.2352 7.464 44.3739 7.64133 45.4005 7.996C46.4459 8.35067 47.3419 8.81733 48.0885 9.396V12H45.0925V10.264C44.2712 9.77867 43.1885 9.536 41.8445 9.536C40.7619 9.536 39.9125 9.75067 39.2965 10.18C38.6805 10.6093 38.3725 11.2813 38.3725 12.196C38.3725 12.8307 38.5685 13.3627 38.9605 13.792C39.3525 14.2213 39.8005 14.5573 40.3045 14.8C40.8085 15.0427 41.5925 15.3787 42.6565 15.808C44.0752 16.368 45.1672 16.8627 45.9325 17.292C46.6979 17.7213 47.3045 18.272 47.7525 18.944C48.2005 19.5973 48.4245 20.4467 48.4245 21.492C48.4245 22.444 48.1725 23.2933 47.6685 24.04C47.1832 24.768 46.4645 25.3467 45.5125 25.776C44.5605 26.2053 43.4125 26.42 42.0685 26.42ZM55.7856 26.36C54.4576 26.36 53.4576 26.032 52.7856 25.376C52.1136 24.72 51.7776 23.76 51.7776 22.496V16.208H49.9056V14.48H51.7776V11.888L54.3216 11.072V14.48H57.7776V16.208H54.3216V22.664C54.3216 23.368 54.4496 23.872 54.7056 24.176C54.9776 24.48 55.3856 24.632 55.9296 24.632C56.6336 24.632 57.1696 24.48 57.5376 24.176V23.144H59.7216V24.968C59.1936 25.416 58.6176 25.76 57.9936 26C57.3696 26.24 56.6336 26.36 55.7856 26.36ZM64.2473 26.36C62.9673 26.36 61.9913 26.08 61.3193 25.52C60.6633 24.96 60.3353 24.168 60.3353 23.144C60.3353 21.992 60.6953 21.152 61.4153 20.624C62.1513 20.08 63.2073 19.76 64.5833 19.664L67.9433 19.448V17.984C67.9433 17.232 67.7833 16.688 67.4633 16.352C67.1433 16.016 66.5993 15.848 65.8313 15.848C65.3033 15.848 64.8633 15.896 64.5113 15.992C64.1753 16.072 63.8633 16.208 63.5753 16.4V17.264H61.3433V15.368C62.6873 14.536 64.1993 14.12 65.8793 14.12C68.9513 14.12 70.4873 15.48 70.4873 18.2V23.456C70.4873 23.776 70.5433 24.008 70.6553 24.152C70.7833 24.296 70.9833 24.368 71.2553 24.368H71.7833V26H69.0233L68.7113 24.488C68.1993 25.144 67.5993 25.624 66.9113 25.928C66.2393 26.216 65.3513 26.36 64.2473 26.36ZM64.8233 24.632C65.7833 24.632 66.5433 24.424 67.1033 24.008C67.6633 23.592 67.9433 22.96 67.9433 22.112V20.96L64.7753 21.2C63.9913 21.248 63.4473 21.416 63.1433 21.704C62.8393 21.976 62.6873 22.416 62.6873 23.024C62.6873 23.552 62.8553 23.952 63.1913 24.224C63.5273 24.496 64.0713 24.632 64.8233 24.632ZM73.1378 24.224H73.7378C74.0578 24.224 74.2818 24.16 74.4098 24.032C74.5538 23.888 74.6258 23.656 74.6258 23.336V17.144C74.6258 16.84 74.5618 16.616 74.4338 16.472C74.3058 16.328 74.0898 16.256 73.7858 16.256H73.2818V14.48H76.5938L76.9298 15.8C77.2498 15.304 77.6578 14.96 78.1538 14.768C78.6658 14.576 79.2658 14.48 79.9538 14.48H81.0578V16.256H79.7138C78.8018 16.256 78.1538 16.464 77.7698 16.88C77.3858 17.28 77.1938 17.904 77.1938 18.752V23.336C77.1938 23.656 77.2578 23.888 77.3858 24.032C77.5138 24.16 77.7298 24.224 78.0338 24.224H78.6338V26H73.1378V24.224Z" fill="#DDEEFF"/>
</g>
<defs>
<filter id="filter0_d" x="34.3206" y="6.464" width="49.7372" height="22.956" filterUnits="userSpaceOnUse" color-interpolation-filters="sRGB">
<feFlood flood-opacity="0" result="BackgroundImageFix"/>
<feColorMatrix in="SourceAlpha" type="matrix" values="0 0 0 0 0 0 0 0 0 0 0 0 0 0 0 0 0 0 127 0"/>
<feOffset dx="1" dy="1"/>
<feGaussianBlur stdDeviation="1"/>
<feColorMatrix type="matrix" values="0 0 0 0 0.6 0 0 0 0 0.666667 0 0 0 0 0.8 0 0 0 0.3 0"/>
<feBlend mode="normal" in2="BackgroundImageFix" result="effect1_dropShadow"/>
<feBlend mode="normal" in="SourceGraphic" in2="effect1_dropShadow" result="shape"/>
</filter>
<clipPath id="clip0">
<rect width="32" height="32" fill="white"/>
</clipPath>
</defs>
</svg>
