<svg width="32" height="16" viewBox="0 0 32 16" fill="none" xmlns="http://www.w3.org/2000/svg">
<path d="M31.6334 7.08664C31.633 7.08626 31.6327 7.08581 31.6322 7.08542L25.1007 0.375738C24.6114 -0.126907 23.82 -0.125037 23.3329 0.380125C22.8459 0.885222 22.8478 1.70219 23.3371 2.2049L27.7224 6.70968H1.25C0.559625 6.70968 0 7.28735 0 8C0 8.71265 0.559625 9.29032 1.25 9.29032H27.7223L23.3372 13.7951C22.8479 14.2978 22.846 15.1148 23.333 15.6199C23.8201 16.1251 24.6116 16.1268 25.1008 15.6243L31.6323 8.91458C31.6327 8.91419 31.633 8.91374 31.6334 8.91336C32.123 8.40897 32.1214 7.58935 31.6334 7.08664Z" fill="white"/>
</svg>
