<svg width="105" height="52" viewBox="0 0 85 32" fill="none" xmlns="http://www.w3.org/2000/svg">
<g filter="url(#filter0_d)">
<path d="M42.0685 26.42C40.7618 26.42 39.5205 26.2333 38.3445 25.86C37.1685 25.4867 36.1605 24.9827 35.3205 24.348V21.604H38.3165V23.424C38.7832 23.704 39.3525 23.928 40.0245 24.096C40.7152 24.264 41.4152 24.348 42.1245 24.348C43.2445 24.348 44.0938 24.1147 44.6725 23.648C45.2512 23.1627 45.5405 22.4813 45.5405 21.604C45.5405 20.988 45.3818 20.4747 45.0645 20.064C44.7658 19.6533 44.3365 19.2987 43.7765 19C43.2165 18.7013 42.4418 18.356 41.4525 17.964C40.0712 17.4227 38.9605 16.9093 38.1205 16.424C37.2805 15.9387 36.6272 15.3693 36.1605 14.716C35.7125 14.044 35.4885 13.232 35.4885 12.28C35.4885 10.6933 36.0952 9.49867 37.3085 8.696C38.5218 7.87467 40.0805 7.464 41.9845 7.464C43.2352 7.464 44.3738 7.64133 45.4005 7.996C46.4458 8.35067 47.3418 8.81733 48.0885 9.396V12H45.0925V10.264C44.2712 9.77867 43.1885 9.536 41.8445 9.536C40.7618 9.536 39.9125 9.75067 39.2965 10.18C38.6805 10.6093 38.3725 11.2813 38.3725 12.196C38.3725 12.8307 38.5685 13.3627 38.9605 13.792C39.3525 14.2213 39.8005 14.5573 40.3045 14.8C40.8085 15.0427 41.5925 15.3787 42.6565 15.808C44.0752 16.368 45.1672 16.8627 45.9325 17.292C46.6978 17.7213 47.3045 18.272 47.7525 18.944C48.2005 19.5973 48.4245 20.4467 48.4245 21.492C48.4245 22.444 48.1725 23.2933 47.6685 24.04C47.1832 24.768 46.4645 25.3467 45.5125 25.776C44.5605 26.2053 43.4125 26.42 42.0685 26.42ZM55.7855 26.36C54.4575 26.36 53.4575 26.032 52.7855 25.376C52.1135 24.72 51.7775 23.76 51.7775 22.496V16.208H49.9055V14.48H51.7775V11.888L54.3215 11.072V14.48H57.7775V16.208H54.3215V22.664C54.3215 23.368 54.4495 23.872 54.7055 24.176C54.9775 24.48 55.3855 24.632 55.9295 24.632C56.6335 24.632 57.1695 24.48 57.5375 24.176V23.144H59.7215V24.968C59.1935 25.416 58.6175 25.76 57.9935 26C57.3695 26.24 56.6335 26.36 55.7855 26.36ZM64.2472 26.36C62.9672 26.36 61.9912 26.08 61.3192 25.52C60.6632 24.96 60.3352 24.168 60.3352 23.144C60.3352 21.992 60.6952 21.152 61.4152 20.624C62.1512 20.08 63.2072 19.76 64.5832 19.664L67.9432 19.448V17.984C67.9432 17.232 67.7832 16.688 67.4632 16.352C67.1432 16.016 66.5992 15.848 65.8312 15.848C65.3032 15.848 64.8632 15.896 64.5112 15.992C64.1752 16.072 63.8632 16.208 63.5752 16.4V17.264H61.3432V15.368C62.6872 14.536 64.1992 14.12 65.8792 14.12C68.9512 14.12 70.4872 15.48 70.4872 18.2V23.456C70.4872 23.776 70.5432 24.008 70.6552 24.152C70.7832 24.296 70.9832 24.368 71.2552 24.368H71.7832V26H69.0232L68.7112 24.488C68.1992 25.144 67.5992 25.624 66.9112 25.928C66.2392 26.216 65.3512 26.36 64.2472 26.36ZM64.8232 24.632C65.7832 24.632 66.5432 24.424 67.1032 24.008C67.6632 23.592 67.9432 22.96 67.9432 22.112V20.96L64.7752 21.2C63.9912 21.248 63.4472 21.416 63.1432 21.704C62.8392 21.976 62.6872 22.416 62.6872 23.024C62.6872 23.552 62.8552 23.952 63.1912 24.224C63.5272 24.496 64.0712 24.632 64.8232 24.632ZM73.1377 24.224H73.7377C74.0577 24.224 74.2817 24.16 74.4097 24.032C74.5537 23.888 74.6257 23.656 74.6257 23.336V17.144C74.6257 16.84 74.5617 16.616 74.4337 16.472C74.3057 16.328 74.0897 16.256 73.7857 16.256H73.2817V14.48H76.5937L76.9297 15.8C77.2497 15.304 77.6577 14.96 78.1537 14.768C78.6657 14.576 79.2657 14.48 79.9537 14.48H81.0577V16.256H79.7137C78.8017 16.256 78.1537 16.464 77.7697 16.88C77.3857 17.28 77.1937 17.904 77.1937 18.752V23.336C77.1937 23.656 77.2577 23.888 77.3857 24.032C77.5137 24.16 77.7297 24.224 78.0337 24.224H78.6337V26H73.1377V24.224Z" fill="#FF440D"/>
</g>
<path d="M16.0367 12.8698L23.4234 8.59336L15.8423 16.1744L16.0367 12.8698Z" fill="#FF440D"/>
<path d="M19.1481 15.9812L23.4245 8.59455L15.8435 16.1756L19.1481 15.9812Z" fill="#750808"/>
<path d="M15.8195 12.8699L8.43284 8.5934L16.0139 16.1744L15.8195 12.8699Z" fill="#750808"/>
<path d="M12.7081 15.9812L8.43166 8.59458L16.0127 16.1756L12.7081 15.9812Z" fill="#FF440D"/>
<path d="M15.8196 19.3097L8.43292 23.5862L16.0139 16.0051L15.8196 19.3097Z" fill="#FF440D"/>
<path d="M12.7083 16.1983L8.4318 23.585L16.0128 16.004L12.7083 16.1983Z" fill="#750808"/>
<path d="M19.3165 16.1983L23.5929 23.5849L16.0119 16.0039L19.3165 16.1983Z" fill="#FF440D"/>
<path d="M16.2052 19.3097L23.5918 23.5861L16.0108 16.0051L16.2052 19.3097Z" fill="#750808"/>
<path d="M12.3077 19.2825L0 16.0005H16L12.3077 19.2825Z" fill="#750808"/>
<path d="M12.3077 12.7158L0 15.9978H16L12.3077 12.7158Z" fill="#FF440D"/>
<path d="M19.2842 19.6923L16.0022 32V16L19.2842 19.6923Z" fill="#750808"/>
<path d="M12.7175 19.6923L15.9995 32L15.9995 16L12.7175 19.6923Z" fill="#FF440D"/>
<path d="M19.6923 12.7158L32 15.9978H16L19.6923 12.7158Z" fill="#750808"/>
<path d="M19.6923 19.2825L32 16.0005H16L19.6923 19.2825Z" fill="#FF440D"/>
<path d="M12.7175 12.3077L15.9995 -6.85453e-07V16L12.7175 12.3077Z" fill="#750808"/>
<path d="M19.2842 12.3077L16.0022 -6.85453e-07V16L19.2842 12.3077Z" fill="#FF440D"/>
<defs>
<filter id="filter0_d" x="34.3205" y="6.464" width="49.7372" height="22.956" filterUnits="userSpaceOnUse" color-interpolation-filters="sRGB">
<feFlood flood-opacity="0" result="BackgroundImageFix"/>
<feColorMatrix in="SourceAlpha" type="matrix" values="0 0 0 0 0 0 0 0 0 0 0 0 0 0 0 0 0 0 127 0"/>
<feOffset dx="1" dy="1"/>
<feGaussianBlur stdDeviation="1"/>
<feColorMatrix type="matrix" values="0 0 0 0 0.458824 0 0 0 0 0.0313726 0 0 0 0 0.0313726 0 0 0 0.3 0"/>
<feBlend mode="normal" in2="BackgroundImageFix" result="effect1_dropShadow"/>
<feBlend mode="normal" in="SourceGraphic" in2="effect1_dropShadow" result="shape"/>
</filter>
</defs>
</svg>
